<svg xmlns="http://www.w3.org/2000/svg" viewBox="0 0 108 108" width="108" height="108">
  <rect width="108" height="108" rx="24" fill="#333333"/>
  <g transform="translate(21.6 21.6) scale(.6)" fill="#ffffff">
    <path d="M31 31c0-1.1.9-2 2-2h10c1.1 0 2 .9 2 2v18c0 1.1-.9 2-2 2H33c-1.1 0-2-.9-2-2zM31 55c0-1.1.9-2 2-2h10c1.1 0 2 .9 2 2v22c0 1.1-.9 2-2 2H33c-1.1 0-2-.9-2-2zM47 27c0-1.1.9-2 2-2h10c1.1 0 2 .9 2 2v26c0 1.1-.9 2-2 2H49c-1.1 0-2-.9-2-2zM47 59c0-1.1.9-2 2-2h10c1.1 0 2 .9 2 2v18c0 1.1-.9 2-2 2H49c-1.1 0-2-.9-2-2zM63 31c0-1.1.9-2 2-2h10c1.1 0 2 .9 2 2v22c0 1.1-.9 2-2 2H65c-1.1 0-2-.9-2-2zM63 59c0-1.1.9-2 2-2h10c1.1 0 2 .9 2 2v18c0 1.1-.9 2-2 2H65c-1.1 0-2-.9-2-2z"/>
  </g>
</svg>
